<?xml version="1.0" encoding="UTF-8"?>
<svg width="31px" height="28px" viewBox="0 0 31 28" version="1.1" xmlns="http://www.w3.org/2000/svg" xmlns:xlink="http://www.w3.org/1999/xlink">
    <!-- Generator: Sketch 48 (47235) - http://www.bohemiancoding.com/sketch -->
    <title>audio_name_playing</title>
    <desc>Created with Sketch.</desc>
    <defs></defs>
    <g id="entry-icons" stroke="none" stroke-width="1" fill="none" fill-rule="evenodd" transform="translate(-208.000000, -295.000000)">
        <g id="audio_name_playing" transform="translate(208.000000, 295.000000)" fill-rule="nonzero">
            <g id="OLDNAmEaudioACTIVE">
                <path d="M29.8928571,28 L1.10714286,28 C0.498214286,28 0,27.496 0,26.88 L0,1.12 C0,0.504 0.498214286,0 1.10714286,0 L29.8928571,0 C30.5017857,0 31,0.504 31,1.12 L31,26.88 C31,27.496 30.5017857,28 29.8928571,28 Z" id="Shape" fill="#C91352"></path>
                <g id="Group" transform="translate(2.491071, 10.640000)" fill="#FFFFFF">
                    <path d="M0.110714286,6.972 L0.110714286,0.168 L1.49464286,0.168 L3.23839286,3.08 C3.68125,3.836 4.06875,4.62 4.37321429,5.348 L4.40089286,5.348 C4.31785714,4.452 4.29017857,3.556 4.29017857,2.52 L4.29017857,0.14 L5.425,0.14 L5.425,6.944 L4.15178571,6.944 L2.40803571,3.948 C1.99285714,3.192 1.52232143,2.352 1.19017857,1.596 L1.1625,1.596 C1.21785714,2.464 1.21785714,3.36 1.21785714,4.48 L1.21785714,6.916 L0.110714286,6.916 L0.110714286,6.972 Z" id="Shape"></path>
                    <path d="M8.19285714,5.04 L7.61160714,6.972 L6.33839286,6.972 L8.49732143,0.168 L10.075,0.168 L12.2616071,6.972 L10.9330357,6.972 L10.3241071,5.04 L8.19285714,5.04 Z M10.1026786,4.116 L9.57678571,2.436 C9.43839286,2.016 9.32767857,1.568 9.24464286,1.176 L9.21696429,1.176 C9.10625,1.568 9.02321429,2.044 8.88482143,2.436 L8.35892857,4.116 L10.1026786,4.116 Z" id="Shape"></path>
                    <path d="M13.0642857,3.528 C13.0642857,2.968 13.0642857,2.492 13.0366071,2.072 L14.0883929,2.072 L14.14375,2.8 L14.1714286,2.8 C14.4205357,2.408 14.8357143,1.96 15.6660714,1.96 C16.3026786,1.96 16.8008929,2.324 17.0223214,2.856 L17.05,2.856 C17.2160714,2.576 17.4098214,2.38 17.6589286,2.24 C17.9357143,2.044 18.2401786,1.96 18.6276786,1.96 C19.4303571,1.96 20.2607143,2.52 20.2607143,4.088 L20.2607143,6.972 L19.0705357,6.972 L19.0705357,4.256 C19.0705357,3.444 18.79375,2.968 18.2125,2.968 C17.7973214,2.968 17.4928571,3.276 17.3544643,3.612 C17.3267857,3.724 17.2991071,3.892 17.2991071,4.032 L17.2991071,6.972 L16.0535714,6.972 L16.0535714,4.116 C16.0535714,3.444 15.7767857,2.94 15.2232143,2.94 C14.7526786,2.94 14.4482143,3.304 14.3375,3.64 C14.2821429,3.752 14.2544643,3.892 14.2544643,4.032 L14.2544643,6.944 L13.0642857,6.944 L13.0642857,3.528 Z" id="Shape"></path>
                    <polygon id="Shape" points="25.3258929 3.948 22.8071429 3.948 22.8071429 5.936 25.6303571 5.936 25.6303571 6.944 21.5616071 6.944 21.5616071 0.168 25.4642857 0.168 25.4642857 1.176 22.7794643 1.176 22.7794643 2.94 25.2982143 2.94 25.2982143 3.948"></polygon>
                </g>
            </g>
        </g>
    </g>
</svg>