<!DOCTYPE svg PUBLIC "-//W3C//DTD SVG 1.1//EN" "http://www.w3.org/Graphics/SVG/1.1/DTD/svg11.dtd">
<!-- Uploaded to: SVG Repo, www.svgrepo.com, Transformed by: SVG Repo Mixer Tools -->
<svg fill="#ffffff" width="800px" height="800px" viewBox="0 0 32 32" version="1.1" xmlns="http://www.w3.org/2000/svg" stroke="">
<g id="SVGRepo_bgCarrier" stroke-width="0"/>
<g id="SVGRepo_tracerCarrier" stroke-linecap="round" stroke-linejoin="round"/>
<g id="SVGRepo_iconCarrier"> <title>bookmark1</title> <path d="M25 29h-16v-22h7v9.125l3.541-2.688 3.459 2.688v-9.125h4v20c0 1.104-0.896 2-2 2zM19.541 12.125l-2.541 2v-8.125h5v8.125l-2.459-2zM6 5v1c0 0.552 0.448 1 1 1h1v22h-1c-1.104 0-2-0.896-2-2v-22c0-1.104 0.896-2 2-2h18c0.738 0 1.376 0.404 1.723 1h-19.723c-0.552 0-1 0.447-1 1z"/> </g>
</svg>