<?xml version="1.0" encoding="UTF-8"?> <svg xmlns="http://www.w3.org/2000/svg" width="362" height="195" viewBox="0 0 362 195" fill="none"> <path d="M360.96 194.498C361.235 194.521 361.476 194.315 361.498 194.04C361.52 193.765 361.315 193.524 361.04 193.502L360.96 194.498ZM115.283 6.41205C115.511 6.25564 115.568 5.94436 115.412 5.71678L112.863 2.00815C112.707 1.78057 112.396 1.72287 112.168 1.87927C111.94 2.03568 111.883 2.34696 112.039 2.57454L114.305 5.8711L111.008 8.13664C110.78 8.29304 110.723 8.60432 110.879 8.8319C111.036 9.05948 111.347 9.11718 111.574 8.96078L115.283 6.41205ZM361.04 193.502C264.829 185.755 188.565 167.763 131.492 145.737C74.409 123.706 36.561 97.6526 17.1376 73.8092C7.42559 61.8871 2.34967 50.5545 1.73339 40.5805C1.11871 30.6324 4.93575 21.9861 13.1265 15.3734C21.3364 8.74529 33.9646 4.14413 50.973 2.39384C67.9752 0.644177 89.3161 1.7476 114.909 6.4916L115.091 5.50835C89.4337 0.752357 67.9933 -0.362971 50.8706 1.39909C33.754 3.16052 20.9135 7.80155 12.4984 14.5953C4.06416 21.4045 0.0999637 30.3598 0.735293 40.6422C1.36902 50.8986 6.57436 62.4254 16.3623 74.4408C35.939 98.4724 73.966 124.607 131.132 146.67C188.31 168.737 264.671 186.745 360.96 194.498L361.04 193.502Z" fill="url(#paint0_linear_1310_604)"></path> <defs> <linearGradient id="paint0_linear_1310_604" x1="108" y1="0.999988" x2="385" y2="198" gradientUnits="userSpaceOnUse"> <stop stop-color="white"></stop> <stop offset="0.87" stop-color="white" stop-opacity="0"></stop> </linearGradient> </defs> </svg> 