<?xml version="1.0" encoding="UTF-8"?>
<svg width="31px" height="28px" viewBox="0 0 31 28" version="1.1" xmlns="http://www.w3.org/2000/svg" xmlns:xlink="http://www.w3.org/1999/xlink">
    <!-- Generator: Sketch 48 (47235) - http://www.bohemiancoding.com/sketch -->
    <title>audio_bre_playing</title>
    <desc>Created with Sketch.</desc>
    <defs></defs>
    <g id="entry-icons" stroke="none" stroke-width="1" fill="none" fill-rule="evenodd" transform="translate(-209.000000, -219.000000)">
        <g id="audio_bre_playing" transform="translate(209.000000, 219.000000)" fill-rule="nonzero">
            <g id="OLDBrEaudioACTIVE">
                <path d="M29.8928571,28 L1.10714286,28 C0.498214286,28 0,27.496 0,26.88 L0,1.12 C0,0.504 0.498214286,0 1.10714286,0 L29.8928571,0 C30.5017857,0 31,0.504 31,1.12 L31,26.88 C31,27.496 30.5017857,28 29.8928571,28 Z" id="Shape" fill="#283583"></path>
                <g id="Group" transform="translate(8.857143, 10.640000)" fill="#FFFFFF">
                    <path d="M0.110714286,0.28 C0.498214286,0.196 1.21785714,0.14 1.88214286,0.14 C2.79553571,0.14 3.34910714,0.252 3.79196429,0.56 C4.20714286,0.812 4.48392857,1.26 4.48392857,1.82 C4.48392857,2.436 4.09642857,3.024 3.37678571,3.304 L3.37678571,3.332 C4.09642857,3.5 4.73303571,4.088 4.73303571,5.012 C4.73303571,5.628 4.48392857,6.104 4.09642857,6.412 C3.62589286,6.832 2.82321429,7.056 1.60535714,7.056 C0.941071429,7.056 0.415178571,7 0.110714286,6.972 L0.110714286,0.28 Z M1.32857143,2.94 L1.9375,2.94 C2.79553571,2.94 3.26607143,2.548 3.26607143,1.96 C3.26607143,1.316 2.79553571,1.036 2.02053571,1.036 C1.66071429,1.036 1.43928571,1.064 1.32857143,1.092 L1.32857143,2.94 Z M1.32857143,6.076 C1.49464286,6.104 1.68839286,6.104 1.96517857,6.104 C2.74017857,6.104 3.45982143,5.796 3.45982143,4.956 C3.45982143,4.172 2.79553571,3.836 1.9375,3.836 L1.32857143,3.836 L1.32857143,6.076 Z" id="Shape"></path>
                    <path d="M5.78482143,3.64 C5.78482143,2.968 5.78482143,2.492 5.75714286,2.044 L6.83660714,2.044 L6.86428571,2.968 L6.89196429,2.968 C7.14107143,2.268 7.69464286,1.932 8.22053571,1.932 C8.33125,1.932 8.41428571,1.932 8.49732143,1.96 L8.49732143,3.136 C8.38660714,3.108 8.27589286,3.108 8.1375,3.108 C7.55625,3.108 7.14107143,3.5 7.03035714,4.032 C7.00267857,4.144 7.00267857,4.284 7.00267857,4.424 L7.00267857,6.972 L5.78482143,6.972 L5.78482143,3.64 Z" id="Shape"></path>
                    <polygon id="Shape" points="13.1473214 3.948 10.6285714 3.948 10.6285714 5.936 13.4517857 5.936 13.4517857 6.944 9.38303571 6.944 9.38303571 0.168 13.2857143 0.168 13.2857143 1.176 10.6008929 1.176 10.6008929 2.94 13.1196429 2.94 13.1196429 3.948"></polygon>
                </g>
            </g>
        </g>
    </g>
</svg>