<?xml version="1.0" encoding="utf-8"?>
<!-- Generator: Adobe Illustrator 28.0.0, SVG Export Plug-In . SVG Version: 6.00 Build 0)  -->
<svg version="1.1" id="Layer_1" xmlns="http://www.w3.org/2000/svg" xmlns:xlink="http://www.w3.org/1999/xlink" x="0px" y="0px"
	 viewBox="0 0 25 25" style="enable-background:new 0 0 25 25;" xml:space="preserve">
<style type="text/css">
	.st0{fill:none;stroke:#FC5819;stroke-width:2;}
	.st1{fill:none;stroke:#961251;stroke-width:2;stroke-linecap:round;stroke-linejoin:round;stroke-miterlimit:10;}
	.st2{fill:none;stroke:#FC5819;stroke-width:2;stroke-linecap:round;stroke-linejoin:round;stroke-miterlimit:10;}
	.st3{fill:none;stroke:#FC5819;stroke-width:2;stroke-linecap:round;stroke-linejoin:round;}
	.st4{fill:none;stroke:#FC5819;stroke-width:2;stroke-miterlimit:10;}
	.st5{fill:#961251;}
	.st6{fill:#FC5819;stroke:#FC5819;stroke-width:0.5;}
	.st7{fill:#FFFFFF;}
</style>
<g id="Layer_2">
</g>
<g>
	<path class="st6" d="M19.8,7c0,0.4,0,0.8,0,1.1C19.8,8.6,19.5,9,19,9c-0.5,0-0.9-0.3-0.9-0.9c0-0.8,0-1.5,0-2.3c0-0.3,0-0.5,0-0.8
		c0-0.5,0.3-0.9,0.9-0.9c1,0,2.1,0,3.1,0c0.5,0,0.9,0.4,0.9,0.8c0,0.5-0.4,0.8-0.9,0.8c-0.3,0-0.6,0-0.9,0c0.1,0.2,0.2,0.3,0.3,0.4
		c1.5,2.1,2.1,4.5,1.9,7.1c-0.4,4.6-3.6,8.5-8.1,9.6c-6,1.6-12.1-2.3-13.3-8.3c-1.2-6,2.7-11.8,8.7-12.9c0.6-0.1,1.2-0.1,1.8-0.2
		c0.5,0,0.9,0.3,0.9,0.8c0,0.5-0.4,0.8-0.9,0.8C8.3,3.4,4.8,6,3.7,10C2.3,14.8,5.2,20,10,21.3c5,1.4,10.1-1.5,11.4-6.5
		c0.7-2.8,0.2-5.4-1.5-7.7C19.9,7.1,19.9,7,19.8,7C19.8,7,19.8,7,19.8,7z"/>
	<g>
		<path class="st7" d="M12.1,12.1c-1.2-0.2-2-0.8-2.5-1.8C9.2,9.6,9.1,8.8,9.3,8c0.4-1.6,1.8-2.8,3.4-2.7c1.7,0.1,3,1.3,3.2,3
			c0.2,1.5-0.7,3.3-2.7,3.7c0.7,0.1,1.5,0.2,2.2,0.4c0.8,0.2,1.5,0.6,2.2,0.9c0.5,0.2,0.8,0.7,0.8,1.3c0,0.6,0,1.1,0,1.7
			c-0.1,1-0.9,1.8-2,1.8c-2.5,0-5.1,0-7.6,0c-1.2,0-2-0.9-2-2.1c0-0.5,0-0.9,0-1.4c0-0.6,0.3-1,0.8-1.3c1.4-0.7,2.9-1.2,4.5-1.3
			C11.9,12.1,12,12.1,12.1,12.1z"/>
		<path class="st5" d="M12.4,19c-1.2,0-2.5,0-3.7,0C7,19,5.8,17.7,5.8,16c0-0.5,0-0.9,0-1.4c0-0.9,0.4-1.6,1.2-2
			c0.8-0.4,1.6-0.7,2.4-1C9.2,11.4,9,11,8.8,10.7C8.3,9.8,8.2,8.8,8.4,7.8c0.4-2,2.2-3.5,4.2-3.4c2.1,0.1,3.8,1.6,4.1,3.8
			c0.2,1.2-0.2,2.5-1.1,3.4c0.8,0.2,1.6,0.6,2.3,0.9c0.8,0.4,1.3,1.1,1.3,2.1c0,0.2,0,0.3,0,0.5c0,0.4,0,0.9,0,1.3
			C19,17.9,17.8,19,16.3,19C15,19,13.7,19,12.4,19z M12,13c-1.4,0.1-2.8,0.5-4.1,1.2c-0.2,0.1-0.3,0.3-0.3,0.5c0,0.5,0,0.9,0,1.4
			c0,0.7,0.5,1.2,1.2,1.2c2.5,0,5.1,0,7.6,0c0.6,0,1.1-0.4,1.1-1c0-0.3,0-0.7,0-1.1c0-0.2,0-0.3,0-0.5c0-0.3-0.1-0.4-0.3-0.5
			c-0.7-0.3-1.4-0.6-2.1-0.8c-0.5-0.1-1-0.2-1.5-0.3c-0.2,0-0.4-0.1-0.6-0.1c-0.1,0-0.1,0-0.3,0c-0.3,0-0.3,0-0.4,0 M12.5,6.2
			c-1.1,0-2.1,0.8-2.4,2C10,8.8,10,9.3,10.3,9.9c0.4,0.7,1,1.2,1.9,1.4c0.1,0,0.1,0,0.3,0c0.2,0,0.3,0,0.4-0.1
			c1.6-0.3,2.1-1.8,2-2.8C14.8,7.1,13.8,6.2,12.5,6.2C12.5,6.2,12.5,6.2,12.5,6.2z"/>
	</g>
</g>
</svg>
