
<svg width="275" height="54" viewBox="0 0 275 54" fill="none" xmlns="http://www.w3.org/2000/svg">
<g clip-path="url(#clip0_7473_9916)">
<path d="M0 0.549286V5.1846H6.08829V38.6618H10.3428V5.1846H16.431V0.549286H0Z" fill="black"/>
<path d="M36.1629 0.549286H31.9818V5.1846V17.4719V22.0336V34.0265V38.6618H36.1629H45.9189V34.0265H36.1629V22.0336H45.9189V17.4719H36.1629V5.1846H45.9189V0.549286H36.1629Z" fill="black"/>
<path d="M137.17 8.27481L140.617 28.214H133.722L137.17 8.27481ZM134.749 0.549286L127.634 38.5883H131.889L132.915 32.7757H141.351L142.378 38.5883H146.632L139.591 0.549286H134.823H134.749Z" fill="black"/>
<path d="M265.537 8.27481L268.838 28.214H262.31L265.611 8.27481H265.537ZM263.117 0.549286L256.002 38.5883H260.256L261.356 32.7757H269.645L270.746 38.5883H275L267.885 0.549286H263.117Z" fill="black"/>
<path d="M242.138 0.549286L235.683 29.6855L229.228 0.549286H224.9L233.849 38.6618H237.517L246.466 0.549286H242.138Z" fill="black"/>
<path d="M175.313 0.549286V26.0803L165.484 0.549286H162.036V38.6618H166.291V13.2044L176.12 38.6618H179.568V0.549286H175.313Z" fill="black"/>
<path d="M204.068 4.66957C201.28 4.66957 199.887 5.92037 199.887 8.34839V31.0835C199.887 33.5115 201.28 34.7623 204.068 34.7623C206.855 34.7623 208.249 33.5115 208.249 31.0835V8.34839C208.249 5.92037 206.855 4.66957 204.068 4.66957ZM204.068 39.324C198.713 39.324 195.265 36.0867 195.265 31.0099V8.34839C195.265 3.34519 198.713 0.034256 204.068 0.034256C209.422 0.034256 212.87 3.27162 212.87 8.34839V31.0835C212.87 36.0867 209.422 39.3976 204.068 39.3976" fill="black"/>
<path d="M74.6732 11.2179C74.6732 17.3247 72.0325 17.3247 70.8589 17.3247H68.0715V5.1846H70.8589C72.1059 5.1846 74.6732 5.1846 74.6732 11.2179ZM76.2136 38.6618H80.6148L74.3798 21.2242C78.7076 19.3113 79.2945 13.8666 79.2945 11.2179C79.2945 8.56911 78.4876 0.622864 70.9322 0.622864H63.6703V38.6618H68.1448V21.8864H70.4188L76.287 38.6618H76.2136Z" fill="black"/>
<path d="M107.829 11.2179C107.829 17.3247 105.188 17.3247 104.014 17.3247H101.227V5.1846H104.014C105.261 5.1846 107.829 5.1846 107.829 11.2179ZM109.369 38.6618H113.77L107.535 21.2242C111.863 19.3113 112.45 13.8666 112.45 11.2179C112.45 8.56911 111.643 0.622864 104.088 0.622864H96.8258V38.6618H101.3V21.8864H103.574L109.443 38.6618H109.369Z" fill="black"/>
<path d="M68.7317 48.7418H13.717V53.9657H68.7317V48.7418Z" fill="#F04E5A"/>
<path d="M82.4487 48.7418H68.7317V53.9657H82.4487V48.7418Z" fill="#F6833D"/>
<path d="M192.478 48.7418H123.746V53.9657H192.478V48.7418Z" fill="#03A75B"/>
<path d="M123.746 48.7418H82.522V53.9657H123.746V48.7418Z" fill="#FEE001"/>
<path d="M206.268 48.7418H192.551V53.9657H206.268V48.7418Z" fill="#5BC9EA"/>
<path d="M261.283 48.7418H206.268V53.9657H261.283V48.7418Z" fill="#3155A5"/>
<path d="M261.283 48.7418H273.239C274.266 48.7418 275.073 49.5512 275.073 50.5812V52.1263C275.073 53.1564 274.266 53.9657 273.239 53.9657H261.283V48.7418Z" fill="#916DBA"/>
<path d="M13.717 53.9657H1.83382C0.806882 53.9657 0 53.1564 0 52.1263V50.5812C0 49.5512 0.806882 48.7418 1.83382 48.7418H13.717V53.9657Z" fill="#FBB1BF"/>
</g>
<defs>
<clipPath id="clip0_7473_9916">
<rect width="275" height="54" fill="white"/>
</clipPath>
</defs>
</svg>
