<!DOCTYPE svg PUBLIC "-//W3C//DTD SVG 1.1//EN" "http://www.w3.org/Graphics/SVG/1.1/DTD/svg11.dtd">
<!-- Uploaded to: SVG Repo, www.svgrepo.com, Transformed by: SVG Repo Mixer Tools -->
<svg fill="#fff" width="800px" height="800px" viewBox="0 0 32 32" version="1.1" xmlns="http://www.w3.org/2000/svg" stroke="#fff">
<g id="SVGRepo_bgCarrier" stroke-width="0"/>
<g id="SVGRepo_tracerCarrier" stroke-linecap="round" stroke-linejoin="round"/>
<g id="SVGRepo_iconCarrier"> <title>message-middle</title> <path d="M30 1.25h-28c-0.414 0-0.75 0.336-0.75 0.75v0 22c0 0.414 0.336 0.75 0.75 0.75h7.692l5.777 5.779c0.136 0.136 0.324 0.221 0.531 0.221 0.207 0 0.394-0.084 0.529-0.219l5.78-5.781h7.689c0.414-0 0.75-0.336 0.75-0.75v0-22c-0-0.414-0.336-0.75-0.75-0.75v0zM29.25 23.25h-7.25c-0 0-0.001 0-0.002 0-0.207 0-0.394 0.084-0.53 0.219l-5.469 5.471-5.467-5.469c-0.135-0.136-0.322-0.221-0.528-0.221-0.001 0-0.002 0-0.002 0h-7.253v-20.5h26.5z"/> </g>
</svg>