<!DOCTYPE svg PUBLIC "-//W3C//DTD SVG 1.1//EN" "http://www.w3.org/Graphics/SVG/1.1/DTD/svg11.dtd">
<!-- Uploaded to: SVG Repo, www.svgrepo.com, Transformed by: SVG Repo Mixer Tools -->
<svg fill="#fcba03" version="1.1" id="Capa_1" xmlns="http://www.w3.org/2000/svg" xmlns:xlink="http://www.w3.org/1999/xlink" width="800px" height="800px" viewBox="0 0 54.43 54.43" xml:space="preserve" stroke="#fcba03">
<g id="SVGRepo_bgCarrier" stroke-width="0"/>
<g id="SVGRepo_tracerCarrier" stroke-linecap="round" stroke-linejoin="round"/>
<g id="SVGRepo_iconCarrier"> <g> <g> <path d="M29.654,24.115c0-1.751-1.424-3.176-3.175-3.176s-3.175,1.425-3.175,3.176s1.424,3.176,3.175,3.176 C28.23,27.29,29.654,25.865,29.654,24.115z M25.304,24.115c0-0.648,0.527-1.176,1.175-1.176s1.175,0.527,1.175,1.176 s-0.527,1.176-1.175,1.176S25.304,24.763,25.304,24.115z"/> <path d="M26.193,28.154c-0.552,0-1,0.446-1,1v7.1c0,0.553,0.448,1,1,1c0.552,0,1-0.447,1-1v-7.1 C27.193,28.601,26.746,28.154,26.193,28.154z"/> <path d="M38.04,20.099c-0.397-0.384-1.032-0.372-1.414,0.028l-0.363,0.378l-3.358-4.037c1.245-1.271,2.158-2.883,2.554-4.704 c1.135-5.229-2.195-10.406-7.422-11.541C27.354,0.076,26.658,0,25.966,0c-4.527,0-8.51,3.214-9.472,7.643 c-1.136,5.228,2.193,10.405,7.422,11.543c0.682,0.147,1.378,0.223,2.07,0.223c1.965,0,3.827-0.607,5.385-1.656l3.498,4.204 l-6.233,6.489c0,0.002,0,0.002-0.001,0.002l-0.014,0.015c-0.03,0.032-0.042,0.071-0.068,0.106 c-0.051,0.067-0.104,0.133-0.136,0.213c-0.031,0.078-0.038,0.16-0.049,0.242c-0.006,0.045-0.026,0.084-0.026,0.131v24.274 c0,0.554,0.448,1,1,1c0.553,0,1-0.446,1-1V29.556l5.814-6.053l0.423,0.509c0.198,0.237,0.482,0.36,0.769,0.36 c0.227,0,0.452-0.076,0.64-0.231c0.424-0.353,0.481-0.983,0.129-1.408l-0.566-0.681l0.52-0.54 C38.451,21.115,38.438,20.48,38.04,20.099z"/> <path d="M23.02,28.23c-0.244-0.101-0.52-0.101-0.764,0c-0.123,0.051-0.233,0.124-0.326,0.217l-5.554,5.555 c-0.391,0.391-0.391,1.023,0,1.414l4.752,4.752c0.144,0.145,0.324,0.217,0.509,0.254V53.43c0,0.553,0.448,1,1,1 c0.552,0,1-0.447,1-1V29.154c0-0.131-0.026-0.261-0.077-0.383C23.459,28.527,23.263,28.332,23.02,28.23z M18.498,34.708 l3.14-3.142v6.281L18.498,34.708z"/> </g> </g> </g>
</svg>