<?xml version="1.0" encoding="utf-8"?>
<!-- Generator: Adobe Illustrator 28.0.0, SVG Export Plug-In . SVG Version: 6.00 Build 0)  -->
<svg version="1.1" id="Layer_1" xmlns="http://www.w3.org/2000/svg" xmlns:xlink="http://www.w3.org/1999/xlink" x="0px" y="0px"
	 viewBox="0 0 25 25" style="enable-background:new 0 0 25 25;" xml:space="preserve">
<style type="text/css">
	.st0{fill:none;stroke:#FC5819;stroke-width:2;}
	.st1{fill:none;stroke:#961251;stroke-width:2;stroke-linecap:round;stroke-linejoin:round;stroke-miterlimit:10;}
	.st2{fill:none;stroke:#FC5819;stroke-width:2;stroke-linecap:round;stroke-linejoin:round;stroke-miterlimit:10;}
	.st3{fill:none;stroke:#FC5819;stroke-width:2;stroke-linecap:round;stroke-linejoin:round;}
	.st4{fill:none;stroke:#FC5819;stroke-width:2;stroke-miterlimit:10;}
	.st5{fill:#961251;}
	.st6{fill:#FC5819;stroke:#FC5819;stroke-width:0.5;}
	.st7{fill:#FFFFFF;}
</style>
<g id="Layer_2">
	<path class="st4" d="M17.5,3.8c-2.8,0-5,2.8-5,2.8s-2.2-2.8-5-2.8s-5,2.2-5,5c0,6.8,10,12.3,10,12.3s10-5.5,10-12.3
		C22.5,6,20.3,3.8,17.5,3.8z"/>
	<path class="st5" d="M16,6.1c-0.5,0.2-0.9,0.6-0.8,1.2s0.7,0.9,1.2,0.8c2.1-0.6,2.3,0.6,2.4,1.6c0,0.6,0.6,0.9,1.2,0.8
		s0.8-0.6,0.8-1.2C20.6,6.8,18.4,5.2,16,6.1z"/>
</g>
</svg>
